<svg xmlns="http://www.w3.org/2000/svg" id="Camada_2" viewBox="0 0 39.56 35.45"><defs><style>.cls-1,.cls-2{fill:#00a859;}.cls-2{fill-rule:evenodd;}</style></defs><g id="Camada_1-2"><path class="cls-2" d="M23.43,31.44c0-.12,.12-.36,.24-.48,.12-.12,.36-.12,.48-.12,.6-.12,1.32-.24,1.92-.12,.84,.12,.36,0,1.2,.24q.72,.12,1.56,.48c.36,.12,1.44,.72,1.8,.96,0,0,.12,0,.12,.12,.12,0,.24,.12,.24,.12,.24,.12,.72,.36,.36,.84-.12,.12-.36,.12-.48,.12h-.72c-.12,0-.36-.12-.6-.12l-1.68-.36q-.12,0-.48-.12c-.12,0-.24,0-.24-.12l-.72-.24c-.24,0-.36-.12-.6-.12l-1.44-.6c-.24-.12-.36-.12-.48-.12-.12-.12-.36-.24-.48-.36Zm-2.16-1.68c-.12,.12-.48,.12-.72,.24l-.6,.24h-.36l-.36,.12c-.24,.12-.48,.12-.6,.24-.48,.12-.72,.24-1.08,.24-.6,.24-.48,.12-.96,.24l-.48,.12-.24,.12-.96,.12c-.6,0-.96,.12-1.68,.12l-2.28-.12c-.48-.12-.36-.84-.36-1.08v-.48l-.36-12.36v-1.8c-.12-.24,0,.12,0,0l-.12-.48c-.24-.48-.84-.48-1.2-.36-.24,.12-.6,.6-.84,.72,0,.12-.12,.12-.24,.24l-.12,.12c-.12,.12,0,0-.24,.12-.12,.24-.72,.72-.84,.84-.24,.12-.36,0-.48-.12l-.12-.12q-.12-.12-.24-.24l-1.08-1.2c-.12-.12-.12-.24-.24-.24l-1.08-1.32q-.12-.12-.24-.24s-.12-.12-.12-.24c-.12-.12-.24-.24-.36-.36-.48-.48-.24-.6,.12-.96l2.88-2.76c.12-.12,.24-.24,.48-.36l.96-.96c.12,0,.24-.12,.24-.12,.36-.36,1.08-.84,1.44-.96,.12-.12,.24-.12,.36-.24l.84-.24c.24-.12,.48-.12,.72-.12,.36-.12,.96-.12,1.44-.12h.72c.24,0,1.32,0,1.44,.12s.36,.48,.48,.72c.36,.36,.6,.72,.96,1.08,.24,.12,.84,.48,.96,.6l1.68,.72c.6,.12,.72,.24,1.32,.24,1.32,.12,1.08,0,2.16-.12,.24,0,.36-.12,.6-.24,.36-.12,.72-.24,1.08-.48,.6-.48,.72-1.2,1.32-.96,.24,.12,.36,.12,.6,.12,.48,.12,.84,.24,1.32,.36,.24,0,.36,.12,.6,.12,.12,0,.24,.12,.36,.12s.12,0,.24,.12c.72,.12,1.32,.6,1.8,.96l.72,.48c0,.12,.12,.12,.12,.24l.24,.24,1.56,1.68s.12,.12,.12,.24c.12,0,.12,.12,.24,.12l1.8,2.16c.12,.12,.24,.36,.48,.48l.72,.84c.12,.12,.24,.24,.36,.36l.6,.72c0,.12,.12,.12,.12,.24,.48,.48,.12,.6-.24,.96-.12,.12-.24,.24-.36,.36l-.84,.72q-.12,.12-.24,.24t-.24,.12c-.24,.24-.6,.6-.84,.84-.12,.12-.24,.24-.48,.36-.36,0-.48-.36-.72-.6-.12,0-.12-.12-.12-.12l-.6-.72c-.12,0-.12-.12-.24-.24,0,0,0-.12-.12-.12-.6-.48-.84-1.32-1.68-1.2-.24,0-.36,.12-.48,.24-.36,.36-.24,.72-.24,1.32v.6c0,.48,.12,2.64,.12,3.24l.12,2.28c.12,.48,.12,1.08,.24,1.56,0,.48,.24,1.44,.48,1.92,.24,.72-.12,.96-.48,.84-.24-.12-.36-.12-.6-.24q-.12,0-.24-.12l-.6-.24c-.36,0-.24,0-.6-.12-.36-.12-.6-.12-1.08-.24-.84-.12-2.04,0-3,.12-.48,.12-.84,.12-1.32,.24l-.6,.24c-.24,.12-.36,.12-.6,.24Zm-.96-22.08c-.12,.12-.24,0-.36,0-.84-.12-.6,0-1.2-.24-.24,0-.36-.12-.36-.12-.36-.48,0-.72,.24-.96,.6-.36,.6-.6,1.32,0,.12,.12,.36,.24,.6,.36,0,.12,.12,.12,.24,.24,.48,.36,0,.72-.48,.72Zm0-7.68s0,.12-.12,0q0,.12-.12,.12h-.12s0,.12-.12,0q0,.12-.12,.12c0,.12,0,0-.12,0,0,.12,.12,.12,0,.12h-.12s.12,0,0,0q0,.12-.12,.12s.12,0,0,0c0,.12,0,0-.12,0,0,.12,.12,.12,0,.12h-.12c.12,.12,.12,0,0,0,0,.12,.12,.12,0,.12h-.12v.12c0,.12-.36,.24-.48,1.08-.12,.36-.12,1.44,0,1.56,0,.6-.12,.84-.48,1.2l-1.08,.72c-.48,.24-.6,.36-.96-.24-.12-.36,0-.24-.24-.6-.24-.24-.36-.24-.96-.24-.84-.12-1.92-.12-2.76-.24-.48,0-1.8,.12-2.28,.24-.24,.12-.36,.24-.72,.24-.24,.12-.36,.12-.6,.24q-.12,.12-.24,.12c-.12,.12-.24,.12-.36,.12,0,.12-.12,.12-.24,.24l-.72,.48c-.12,0-.24,.12-.36,.12l-.12,.24c-.12,.12-.24,.12-.24,.12-.36,.24-.36,.36-.48,.48q-.12,.12-.24,.24l-2.16,1.92-.12,.12q0,.12-.12,.12l-.24,.24-.12,.12-.48,.36v.12q-.12,0-.12,.12l-.24,.12q-.12,.12-.24,.24l-.36,.36c-.12,.12-.24,.24-.36,.36q-.12,0-.12,.12l-.6,.6c-.24,.12-.12,0-.12,.48v.36l.24,.24,.24,.36h.12q0,.12,.12,.24c.36,.36,.36,.24,.84,.84l1.92,2.16c.12,.24,.36,.36,.48,.6,.12,.12,.96,1.2,1.08,1.2l.48,.36v.12c.12,0,.24,.12,.36,.24,.84,.24,.84,0,1.44-.48,.36-.24,.6-.48,.96-.36,.24,.12,.24,.72,.24,1.08v.72l.36,11.64c0,.48,0,.96,.24,1.2,.36,.36,1.08,.36,1.68,.36h.6c1.56,.12,1.8,.12,3.36-.12,.36,0,.84,0,1.2-.12,.72-.24,2.52-.24,3.24-.24,.6,0,1.8,.12,2.4,.24l1.68,.48c.12,0,.36,.12,.48,.12,.12,.12,.24,.12,.24,.12,.12,0,.24,.12,.24,.12,.12,.12,.36,.12,.48,.12l.96,.36c.24,.12,.36,.12,.6,.24,.12,0,.36,.12,.48,.12,.72,.12,1.2,.6,2.76,.6l.6,.12c.48,0,2.64,.12,3.12,0,.12,0,.72-.12,1.32-.24h.24c.12,0,.24,0,.36-.24,.12-.12,0,0,.12-.24h.12c.24-.36,0-.84-.24-1.08q-.12-.12-.24-.24l-.48-.6-.12-.12-.24-.24v-.12h-.12v-.12c-.12-.24,0-.12-.24-.36l-.36-.48c0-.12-.36-.6-.36-.72l-.72-1.56c-.12-.12-.12-.24-.12-.48q-.24-.6-.24-.84l-.24-.96c-.12-.36-.36-2.4-.24-2.52-.12,0,0,.12,0,0l-.12-1.8c.12-.36,.36-.6,.72-.24l.36,.36c.12,0,.12,.12,.12,.12,.12,.24,.12,.12,.36,.36,.12,.12,.36,.24,.6,.24,.48,.12,1.2-.84,1.32-.84,.12-.12,.36-.36,.48-.48l3-2.76q.12-.12,.36-.36c.36-.24,1.08-.84,.84-1.32-.12-.24-.48-.72-.6-.84l-.12-.12-.48-.6-.24-.12v-.12l-1.44-1.68q-.12,0-.12-.12l-1.2-1.32q-.12-.12-.12-.24c-.36-.24-.84-.84-1.08-1.2l-2.4-2.64c-.24-.12-.36-.36-.6-.48-.12-.12-.24-.12-.36-.24l-.12-.12c-.24-.12-.12-.12-.36-.24q-.12,0-.24-.12c-.12-.12-.24,0-.36-.12-.12-.12-.48-.36-.72-.36-.12,0-.24-.12-.36-.12-.24-.12-1.2-.36-1.32-.36l-1.8-.48c-.48,0-1.32-.36-1.8-.24s-.48,.36-.72,.36c-.36,.12-.6-.12-.72-.24l-.72-.6c-.24-.12-.36-.24-.6-.48-.48-.36-.6-.36-.6-.84,.12-.12,0-.12,0-.24v-.96c.12-.12,.24-.24,.36-.36,.12,0,.24,.12,.36,.12,.12,.12,.12,.24,.12,.48,.12,.24,.84,.84,1.44,.24h.12s-.12,0,0,0v-.12h.12q-.12,0,0,0v-.12l.12-.12V1.56h-.12v-.24h-.12v-.24h-.12v-.12q0,.12,0,0-.12,0,0,0h-.12v-.12c-.12,0,0,0,0,0l-.12-.12s0,.12,0,0c-.12,0,0,0,0,0h-.12v-.12c-.12,0,0,0,0,0h-.12v-.12l-.12-.12q-.12,0-.24-.12c-.12,0-.24,0-.36-.12h-.24l-.12-.12h-.6s.12,0,0,0h-.12Z"></path><path class="cls-1" d="M16.71,16.8c-.72,0-1.32,.24-1.8,.48l.12-2.16h4.32l-.12-2.28h-6.36l-.48,5.88,1.92,.6c.24-.24,.84-.6,1.56-.6,.96,0,1.44,.6,1.44,1.44,0,.96-.72,1.56-1.92,1.56s-2.64-1.08-2.64-1.08l-.72,2.4s1.32,1.08,3.84,1.08c3.12,0,4.32-1.92,4.32-4.08s-1.56-3.24-3.48-3.24Zm4.32,6.6l6.24-9.6h-.84l-6.36,9.6h.96Zm.96-5.76c.96,0,1.44-.48,1.44-1.8,0-1.08-.48-1.68-1.44-1.68-1.08,0-1.56,.6-1.56,1.68,0,1.32,.48,1.8,1.56,1.8Zm0-.96c-.48,0-.6-.24-.6-.84,0-.48,.12-.84,.6-.84,.36,0,.48,.36,.48,.84,0,.6-.12,.84-.48,.84Zm4.08,6c.96,0,1.56-.48,1.56-1.8,0-1.08-.48-1.68-1.56-1.68s-1.56,.6-1.56,1.68c0,1.32,.6,1.8,1.56,1.8Zm0-.96c-.36,0-.48-.24-.48-.84,0-.48,.12-.84,.48-.84,.48,0,.48,.36,.48,.84,0,.6-.12,.84-.48,.84Z"></path></g></svg>