<svg xmlns="http://www.w3.org/2000/svg" id="Camada_2" viewBox="0 0 39.59 35.45"><defs><style>.cls-1{fill:#00a859;fill-rule:evenodd;}</style></defs><g id="Camada_1-2"><path class="cls-1" d="M23.49,31.44c0-.12,.12-.36,.12-.48,.24-.12,.36-.12,.6-.12,.6-.12,1.32-.24,1.92-.12,.84,.12,.36,0,1.2,.24q.72,.12,1.44,.48c.36,.12,1.56,.72,1.8,.96q.12,0,.24,.12c.12,0,.12,.12,.24,.12,.12,.12,.6,.36,.24,.84-.12,.12-.24,.12-.48,.12h-.6c-.24,0-.36-.12-.6-.12l-1.68-.36c-.24,0-.12,0-.6-.12,0,0-.12,0-.24-.12l-.72-.24c-.12,0-.36-.12-.48-.12l-1.44-.6c-.24-.12-.36-.12-.6-.12-.12-.12-.36-.24-.36-.36Zm-2.16-1.68c-.24,.12-.6,.12-.72,.24l-.6,.24h-.36l-.36,.12c-.24,.12-.48,.12-.72,.24-.36,.12-.6,.24-.96,.24-.6,.24-.6,.12-1.08,.24l-.36,.12-.36,.12-.96,.12c-.48,0-.84,.12-1.56,.12l-2.28-.12c-.48-.12-.36-.84-.36-1.08v-.48l-.36-12.36c0-.6,0-1.2-.12-1.8,0-.24,0,.12,0,0l-.12-.48c-.24-.48-.84-.48-1.2-.36-.12,.12-.6,.6-.72,.72q-.12,.12-.24,.24t-.12,.12c-.12,.12-.12,0-.24,.12-.24,.24-.72,.72-.96,.84-.12,.12-.36,0-.48-.12l-.12-.12c0-.12-.12-.12-.12-.24l-1.2-1.2c0-.12-.12-.24-.12-.24l-1.2-1.32c0-.12-.12-.12-.12-.24-.12,0-.12-.12-.24-.24-.12-.12-.24-.24-.36-.36-.48-.48-.24-.6,.12-.96l3-2.76c.12-.12,.24-.24,.36-.36l1.08-.96c.12,0,.12-.12,.24-.12,.24-.36,1.08-.84,1.44-.96q.12-.12,.24-.24l.96-.24c.12-.12,.48-.12,.6-.12,.48-.12,1.08-.12,1.56-.12h.72c.24,0,1.32,0,1.44,.12,.12,.12,.36,.48,.48,.72,.24,.36,.6,.72,.96,1.08,.12,.12,.72,.48,.96,.6l1.68,.72c.48,.12,.6,.24,1.32,.24,1.32,.12,.96,0,2.16-.12,.24,0,.36-.12,.6-.24,.36-.12,.6-.24,.96-.48,.72-.48,.84-1.2,1.44-.96,.12,.12,.36,.12,.6,.12,.36,.12,.84,.24,1.32,.36,.12,0,.36,.12,.6,.12,.12,0,.12,.12,.24,.12s.24,0,.36,.12c.72,.12,1.2,.6,1.8,.96l.6,.48c.12,.12,.24,.12,.24,.24q.12,.12,.24,.24l1.44,1.68c.12,0,.12,.12,.24,.24l.12,.12,1.92,2.16c.12,.12,.24,.36,.36,.48l.72,.84c.12,.12,.36,.24,.48,.36l.48,.72q.12,.12,.24,.24c.36,.48,0,.6-.24,.96-.12,.12-.24,.24-.48,.36l-.84,.72c0,.12-.12,.12-.12,.24q-.12,.12-.24,.12c-.24,.24-.6,.6-.84,.84-.12,.12-.24,.24-.48,.36-.36,0-.48-.36-.72-.6-.12,0-.12-.12-.24-.12l-.48-.72c-.12,0-.24-.12-.24-.24-.12,0-.12-.12-.12-.12-.6-.48-.96-1.32-1.68-1.2-.24,0-.36,.12-.48,.24-.36,.36-.36,.72-.24,1.32,0,.24-.12,.36,0,.6v3.24l.24,2.28c0,.48,.12,1.08,.12,1.56,.12,.48,.36,1.44,.48,1.92,.36,.72,0,.96-.48,.84q-.24-.12-.48-.24c-.12,0-.24,0-.36-.12l-.48-.24q-.36,0-.72-.12c-.36-.12-.6-.12-.96-.24-.96-.12-2.04,0-3,.12-.48,.12-.84,.12-1.32,.24l-.6,.24c-.24,.12-.48,.12-.6,.24Zm-.96-22.08c-.12,.12-.24,0-.48,0-.72-.12-.48,0-1.2-.24-.12,0-.24-.12-.36-.12-.36-.48,.12-.72,.36-.96,.6-.36,.6-.6,1.32,0,.12,.12,.36,.24,.48,.36,.12,.12,.24,.12,.24,.24,.48,.36,0,.72-.36,.72Zm-.12-7.68s0,.12,0,0q0,.12-.12,.12h-.24s0,.12,0,0q0,.12-.12,.12h-.12c0,.12,0,0,0,0v.12h-.12s.12,0,0,0h-.12c0,.12,.12,.12,0,.12h-.12q.12,0,0,0c0,.12,0,0,0,0v.12h-.12c0,.12,0,0,0,0q0,.12-.12,.12s.12,0,0,0v.12c-.12,.12-.36,.24-.6,1.08v1.56c.12,.6,0,.84-.48,1.2l-.96,.72c-.48,.24-.6,.36-.96-.24-.24-.36,0-.24-.24-.6q-.36-.24-.96-.24c-.84-.12-1.92-.12-2.76-.24-.48,0-1.8,.12-2.28,.24-.24,.12-.48,.24-.72,.24-.24,.12-.36,.12-.6,.24-.12,.12-.24,.12-.36,.12q-.12,.12-.24,.12c-.12,.12-.24,.12-.24,.24l-.84,.48c-.12,0-.12,.12-.24,.12l-.24,.24c0,.12-.12,.12-.24,.12-.24,.24-.24,.36-.36,.48-.12,.12-.24,.12-.24,.24l-2.28,1.92v.12l-.12,.12-.36,.24q0,.12-.12,.12l-.36,.36s0,.12-.12,.12l-.12,.12-.12,.12q-.12,.12-.24,.24l-.36,.36c-.24,.12-.24,.24-.48,.36v.12h-.12l-.6,.6c-.12,.12-.12,0,0,.48v.36l.12,.24,.36,.36q.12,.12,.24,.24c.24,.36,.36,.24,.84,.84l1.8,2.16c.24,.24,.36,.36,.6,.6,.12,.12,.96,1.2,1.08,1.2l.36,.36v.12c.12,0,.24,.12,.48,.24,.84,.24,.72,0,1.44-.48,.24-.24,.48-.48,.84-.36,.24,.12,.36,.72,.24,1.08,0,.36,.12,.48,.12,.72l.36,11.64c0,.48-.12,.96,.24,1.2,.36,.36,.96,.36,1.68,.36h.6c1.56,.12,1.8,.12,3.36-.12,.24,0,.84,0,1.2-.12,.72-.24,2.4-.24,3.24-.24,.6,0,1.8,.12,2.4,.24l1.68,.48c.12,0,.24,.12,.48,.12,0,.12,.12,.12,.24,.12s.12,.12,.24,.12c.12,.12,.36,.12,.48,.12l.96,.36c.12,.12,.36,.12,.48,.24,.12,0,.36,.12,.48,.12,.84,.12,1.32,.6,2.76,.6l.6,.12c.48,0,2.76,.12,3.12,0,.24,0,.84-.12,1.32-.24h.24c.24,0,.36,0,.48-.24,.12-.12-.12,0,.12-.24,.24-.36,0-.84-.24-1.08q0-.12-.12-.24l-.6-.6q0-.12-.12-.12l-.12-.24v-.12h-.12v-.12h-.12c-.12-.24,0-.12-.12-.36l-.36-.48c-.12-.12-.36-.6-.48-.72l-.72-1.56c0-.12,0-.24-.12-.48-.24-.6-.12-.6-.24-.84l-.12-.96c-.12-.36-.36-2.4-.36-2.52,0,0,.12,.12,0,0v-1.8c0-.36,.36-.6,.72-.24l.36,.36s0,.12,.12,.12c.12,.24,.12,.12,.24,.36h.12c.12,.12,.36,.24,.48,.24,.48,.12,1.2-.84,1.32-.84,.12-.12,.48-.36,.6-.48l2.88-2.76q.24-.12,.36-.36h.12c.36-.24,.96-.84,.84-1.32-.12-.24-.48-.72-.6-.84q-.12,0-.12-.12l-.6-.6-.12-.12c-.12-.12,0-.12-.12-.12l-1.44-1.68-.12-.12-1.2-1.32q0-.12-.12-.24c-.24-.24-.72-.84-1.08-1.2l-2.4-2.64c-.12-.12-.36-.36-.6-.48l-.24-.24c-.12,0-.12-.12-.24-.12q-.12-.12-.36-.24l-.12-.12c-.24-.12-.24,0-.36-.12s-.6-.36-.72-.36c-.24,0-.24-.12-.48-.12-.12-.12-1.08-.36-1.32-.36l-1.68-.48c-.48,0-1.32-.36-1.92-.24-.36,.12-.36,.36-.72,.36-.24,.12-.48-.12-.72-.24l-.6-.6c-.24-.12-.36-.24-.6-.48q-.6-.36-.6-.84v-1.2c0-.12,.12-.24,.24-.36,.24,0,.36,.12,.36,.12,.24,.12,.12,.24,.24,.48,.12,.24,.72,.84,1.44,.24h.12v-.12l.12-.12q-.12,0,0,0v-.12l.12-.12v-.84l-.12-.12v-.24h-.12v-.24h-.12v-.24q-.12,.12-.12,0v-.12h-.12v-.12s0,.12,0,0h-.12v-.12h-.12v-.12l-.12-.12c-.12,0-.24,0-.36-.12q-.12,0-.24-.12h-.36l-.12-.12h-.72Z"></path><path class="cls-1" d="M21.21,18.24h1.32v.96h-1.32v-.96Zm-6.72,0h6v.96h-6v-.96Zm11.4-1.08v4.2c0,.36-.24,.6-.6,.6H14.37c-.36,0-.6-.24-.6-.6v-4.2h12.12Zm-11.52-3.96h10.92c.36,0,.6,.24,.6,.6v1.2H13.77v-1.2c0-.36,.24-.6,.6-.6Zm0-.84h10.92c.84,0,1.44,.6,1.44,1.44v7.56c0,.84-.6,1.44-1.44,1.44H14.37c-.84,0-1.44-.6-1.44-1.44v-7.56c0-.84,.6-1.44,1.44-1.44Z"></path></g></svg>